{"title":"Non-Stop.2014.BRRip.XviD-TODE","uid":10221579,"size":728719926,"categoryP":"video","categoryS":"movies","magnet":"?xt=urn:btih:77e90c867684f9070f34b1ff095d31b7d8934b46&amp;dn=Non-Stop.2014.BRRip.XviD-TODE&amp;tr=udp%3A%2F%2Ftracker.openbittorrent.com%3A80&amp;tr=udp%3A%2F%2Fopen.demonii.com%3A1337&amp;tr=udp%3A%2F%2Ftracker.coppersurfer.tk%3A6969&amp;tr=udp%3A%2F%2Fexodus.desync.com%3A6969","seeders":0,"leechers":0,"uploader":"xxxlavalxxx","files":-1,"time":1401048325,"description":"\n &lt;a href=&quot;\nhttp://www.imdb.com/title/tt2024469/&quot; rel=&quot;nofollow&quot; target=&quot;_NEW&quot;&gt;\nhttp://www.imdb.com/title/tt2024469/&lt;/a&gt;\n\n\nAn air marshal springs into action during a transatlantic flight after receiving a series of text messages that put his fellow passengers at risk unless the airline transfers $150 million into an off-shore account.\n\nDirector: Jaume Collet-Serra\nWriters: John W. Richardson (screenplay), Christopher Roach (screenplay)\nStars: Liam Neeson, Julianne Moore, Scoot McNairy \nGenres: Action | Mystery | Thriller\nCountry: USA | France\nLanguage: English | German\n\n\nThanks: AMIABLE\n\nFormat                                   : AVI\nFormat/Info                              : Audio Video Interleave\nFile size                                : 695 MiB\nDuration                                 : 1h 46mn\nOverall bit rate                         : 911 Kbps\nWriting library                          : VirtualDub build 32842/release\n\nVideo\nID                                       : 0\nFormat                                   : MPEG-4 Visual\nFormat profile                           : Advanced Simple@L5\nFormat settings, BVOP                    : 2\nFormat settings, QPel                    : No\nFormat settings, GMC                     : No warppoints\nFormat settings, Matrix                  : Default (H.263)\nMuxing mode                              : Packed bitstream\nCodec ID                                 : XVID\nCodec ID/Hint                            : XviD\nDuration                                 : 1h 46mn\nBit rate                                 : 774 Kbps\nWidth                                    : 640 pixels\nHeight                                   : 268 pixels\nDisplay aspect ratio                     : 2.40:1\nFrame rate                               : 23.976 fps\nColor space                              : YUV\nChroma subsampling                       : 4:2:0\nBit depth                                : 8 bits\nScan type                                : Progressive\nCompression mode                         : Lossy\nBits/(Pixel*Frame)                       : 0.188\nStream size                              : 590 MiB (85%)\nWriting library                          : XviD 64\n\nAudio\nID                                       : 1\nFormat                                   : MPEG Audio\nFormat version                           : Version 1\nFormat profile                           : Layer 3\nMode                                     : Joint stereo\nCodec ID                                 : 55\nCodec ID/Hint                            : MP3\nDuration                                 : 1h 46mn\nBit rate mode                            : Constant\nBit rate                                 : 128 Kbps\nChannel(s)                               : 2 channels\nSampling rate                            : 48.0 KHz\nCompression mode                         : Lossy\nStream size                              : 97.6 MiB (14%)\nAlignment                                : Split accross interleaves\nInterleave, duration                     : 42 ms (1.00 video frame)\nInterleave, preload duration             : 500 ms\n\n\n\nscreens\n &lt;a href=&quot;\nhttp://i.imgur.com/IUPiHwM.jpg&quot; rel=&quot;nofollow&quot; target=&quot;_NEW&quot;&gt;\nhttp://i.imgur.com/IUPiHwM.jpg&lt;/a&gt; &lt;a href=&quot;\nhttp://i.imgur.com/5fKFqfv.jpg&quot; rel=&quot;nofollow&quot; target=&quot;_NEW&quot;&gt;\nhttp://i.imgur.com/5fKFqfv.jpg&lt;/a&gt; &lt;a href=&quot;\nhttp://i.imgur.com/ea0Wiiw.jpg&quot; rel=&quot;nofollow&quot; target=&quot;_NEW&quot;&gt;\nhttp://i.imgur.com/ea0Wiiw.jpg&lt;/a&gt; &lt;a href=&quot;\nhttp://i.imgur.com/wG63NXk.jpg&quot; rel=&quot;nofollow&quot; target=&quot;_NEW&quot;&gt;\nhttp://i.imgur.com/wG63NXk.jpg&lt;/a&gt; &lt;a href=&quot;\nhttp://i.imgur.com/S7OULfY.jpg&quot; rel=&quot;nofollow&quot; target=&quot;_NEW&quot;&gt;\nhttp://i.imgur.com/S7OULfY.jpg&lt;/a&gt; &lt;a href=&quot;\nhttp://i.imgur.com/M6pTOy4.jpg&quot; rel=&quot;nofollow&quot; target=&quot;_NEW&quot;&gt;\nhttp://i.imgur.com/M6pTOy4.jpg&lt;/a&gt; &lt;a href=&quot;\nhttp://i.imgur.com/3Vl0Yg2.jpg&quot; rel=&quot;nofollow&quot; target=&quot;_NEW&quot;&gt;\nhttp://i.imgur.com/3Vl0Yg2.jpg&lt;/a&gt; &lt;a href=&quot;\nhttp://i.imgur.com/hocU3GA.jpg&quot; rel=&quot;nofollow&quot; target=&quot;_NEW&quot;&gt;\nhttp://i.imgur.com/hocU3GA.jpg&lt;/a&gt;","torrent":{"xt":"urn:btih:77e90c867684f9070f34b1ff095d31b7d8934b46","amp;dn":"Non-Stop.2014.BRRip.XviD-TODE","amp;tr":["udp%3A%2F%2Ftracker.openbittorrent.com%3A80","udp%3A%2F%2Fopen.demonii.com%3A1337","udp%3A%2F%2Ftracker.coppersurfer.tk%3A6969","udp%3A%2F%2Fexodus.desync.com%3A6969"],"infoHash":"77e90c867684f9070f34b1ff095d31b7d8934b46","infoHashBuffer":{"type":"Buffer","data":[119,233,12,134,118,132,249,7,15,52,177,255,9,93,49,183,216,147,75,70]},"announce":[],"urlList":[]}}